<svg 
        xmlns="http://www.w3.org/2000/svg" 
        viewBox="0 0 48 48" 
        className="w-5 h-5"
    >
        <path 
            fill="#EA4335" 
            d="M24 9.5c3.08 0 5.48 1.18 7.09 2.18l5.29-5.29C33.15 3.67 28.94 2 24 2 14.8 2 7.14 8.38 4.38 17h7.92C13.8 12.64 18.51 9.5 24 9.5z"
        />
        <path 
            fill="#34A853" 
            d="M24 46c5.35 0 9.8-1.78 13.07-4.82l-6.13-5.02c-1.91 1.31-4.53 2.12-6.94 2.12-5.43 0-10.07-3.68-11.7-8.68H4.38C7.14 39.62 14.8 46 24 46z"
        />
        <path 
            fill="#4A90E2" 
            d="M43.56 24.66c.44-1.47.44-3.03 0-4.66H24v9.34h11.09c-.76 2.54-3.03 4.77-5.45 6.06l6.13 5.02C40.54 37.2 43.12 31.33 43.56 24.66z"
        />
        <path 
            fill="#FBBC05" 
            d="M12.3 26.5c-.38-1.18-.6-2.44-.6-3.75s.22-2.57.6-3.75h-7.92c-.64 1.95-1.02 4.04-1.02 6.25s.38 4.3 1.02 6.25z"
        />
    </svg>